<svg xmlns="http://www.w3.org/2000/svg" xmlns:xlink="http://www.w3.org/1999/xlink" width="64" height="50" viewBox="0 0 64 50"><defs><path id="ccv7a" d="M124.688 522.316l-17.782 12.687a4.964 4.964 0 0 0-3.437 1.47 4.99 4.99 0 0 0 0 7.062 4.99 4.99 0 0 0 7.062 0 4.962 4.962 0 0 0 1.469-3.438l12.687-17.781zM107 502.003c-17.638 0-32 14.363-32 32a31.818 31.818 0 0 0 5.5 17.938l4.719-3.719A25.934 25.934 0 0 1 81 534c0-14.394 11.605-26 26-26s26 11.606 26 26a25.94 25.94 0 0 1-4.219 14.22l4.719 3.718c3.478-5.12 5.5-11.3 5.5-17.938 0-17.637-14.362-32-32-32z"/></defs><g><g transform="translate(-75 -502)"><use fill="#fff" xlink:href="#ccv7a"/></g></g></svg>