<svg xmlns="http://www.w3.org/2000/svg" xmlns:xlink="http://www.w3.org/1999/xlink" width="57" height="67" viewBox="0 0 57 67"><defs><path id="ts3na" d="M732 497v47.847a9.452 9.452 0 0 1-5.251 8.497l-17.687 8.843a12.492 12.492 0 0 1-5.562 1.313 12.493 12.493 0 0 1-5.562-1.313l-17.687-8.843a9.452 9.452 0 0 1-5.251-8.497V497zm-4.75 4.75h-47.5v43.097a4.729 4.729 0 0 0 2.624 4.249l17.69 8.842a7.814 7.814 0 0 0 6.873 0l17.689-8.842a4.729 4.729 0 0 0 2.624-4.25zm-23.75 47.5c-8.016 0-13.33-5.223-13.554-5.446l-.696-.696v-19.983h19V516c0-2.62-2.13-4.75-4.75-4.75s-4.75 2.13-4.75 4.75v2.375H694V516c0-5.24 4.26-9.5 9.5-9.5s9.5 4.26 9.5 9.5v7.125h4.75v19.983l-.696.696c-.223.223-5.538 5.446-13.554 5.446zm-9.5-8.21c1.425 1.128 4.928 3.46 9.5 3.46 4.617 0 8.087-2.323 9.5-3.45v-13.175h-19zm7.125-6.04h4.75v4.75h-4.75z"/></defs><g><g transform="translate(-675 -497)"><use fill="#fff" xlink:href="#ts3na"/></g></g></svg>