<svg xmlns="http://www.w3.org/2000/svg" xmlns:xlink="http://www.w3.org/1999/xlink" width="63" height="60" viewBox="0 0 63 60"><defs><path id="4cgna" d="M401.898 537.626a2.468 2.468 0 0 1-1.753-.716l-7.033-7.033a2.468 2.468 0 0 1 0-3.505 2.468 2.468 0 0 1 3.48 0l5.306 5.306 14.091-14.092a2.468 2.468 0 0 1 3.48 0 2.468 2.468 0 0 1 0 3.48l-15.844 15.795a2.468 2.468 0 0 1-1.727.765z"/><path id="4cgnb" d="M406.29 550.04c1.704.092 3.376.493 4.936 1.184 1.021.531 2.157.802 3.307.79.716-.247 1.555-1.53 2.295-2.665a12.76 12.76 0 0 1 3.11-3.702 13.45 13.45 0 0 1 4.516-1.851 7.009 7.009 0 0 0 3.209-1.333 6.762 6.762 0 0 0 .296-3.43 13.327 13.327 0 0 1 .37-4.936 12.71 12.71 0 0 1 2.468-4.047c.913-1.136 1.85-2.271 1.85-3.085 0-.815-.937-1.95-1.85-3.085a12.71 12.71 0 0 1-2.468-4.048 13.327 13.327 0 0 1-.37-4.936 6.762 6.762 0 0 0-.296-3.43 7.009 7.009 0 0 0-3.209-1.333 13.45 13.45 0 0 1-4.516-1.85 12.76 12.76 0 0 1-3.11-3.702c-.74-1.136-1.579-2.468-2.295-2.666a7.009 7.009 0 0 0-3.307.84 14.067 14.067 0 0 1-4.936 1.184 14.067 14.067 0 0 1-4.935-1.185 7.009 7.009 0 0 0-3.307-.79c-.716.247-1.555 1.53-2.296 2.666a12.76 12.76 0 0 1-3.11 3.702 13.45 13.45 0 0 1-4.515 1.85 7.009 7.009 0 0 0-3.209 1.333 6.762 6.762 0 0 0-.296 3.43c.186 1.655.06 3.329-.37 4.937a12.71 12.71 0 0 1-2.468 4.047c-.913 1.135-1.851 2.27-1.851 3.085 0 .814.938 1.95 1.851 3.085a12.71 12.71 0 0 1 2.468 4.047c.43 1.608.556 3.282.37 4.936a6.762 6.762 0 0 0 .296 3.43 7.009 7.009 0 0 0 3.209 1.333 13.45 13.45 0 0 1 4.516 1.851 12.76 12.76 0 0 1 3.11 3.702c.74 1.135 1.579 2.468 2.295 2.665a7.009 7.009 0 0 0 3.307-.839 14.067 14.067 0 0 1 4.935-1.184zm7.774 6.96a13.105 13.105 0 0 1-4.689-1.16 10.514 10.514 0 0 0-3.085-.864c-1.066.128-2.106.42-3.084.863a9.674 9.674 0 0 1-6.565.864 9.872 9.872 0 0 1-4.936-4.664 9.872 9.872 0 0 0-1.876-2.468 10.958 10.958 0 0 0-2.887-1.061 9.699 9.699 0 0 1-5.923-3.209 9.872 9.872 0 0 1-1.234-6.59 9.872 9.872 0 0 0 0-3.133 10.39 10.39 0 0 0-1.654-2.468 10.07 10.07 0 0 1-3.084-6.12 10.07 10.07 0 0 1 2.961-6.195 9.872 9.872 0 0 0 1.654-2.468 9.674 9.674 0 0 0 0-3.134 9.872 9.872 0 0 1 1.234-6.565 9.699 9.699 0 0 1 5.923-3.208 10.957 10.957 0 0 0 2.887-1.062 9.872 9.872 0 0 0 1.876-2.467 9.872 9.872 0 0 1 4.935-4.665 9.674 9.674 0 0 1 6.565.864c1.014.473 2.097.781 3.208.913a10.514 10.514 0 0 0 3.085-.864 9.674 9.674 0 0 1 6.565-.765 9.872 9.872 0 0 1 4.936 4.665 9.871 9.871 0 0 0 1.875 2.468c.908.487 1.88.845 2.888 1.06a9.699 9.699 0 0 1 5.923 3.209 9.872 9.872 0 0 1 1.234 6.59 9.872 9.872 0 0 0 .123 3.134c.43.897.987 1.728 1.654 2.468a10.07 10.07 0 0 1 2.961 6.021 10.07 10.07 0 0 1-2.961 6.195 9.872 9.872 0 0 0-1.654 2.468 9.674 9.674 0 0 0-.123 3.134 9.872 9.872 0 0 1-1.234 6.565 9.699 9.699 0 0 1-5.923 3.208c-1.008.216-1.98.573-2.888 1.061a9.872 9.872 0 0 0-1.875 2.468 9.872 9.872 0 0 1-4.936 4.664c-.606.19-1.24.273-1.876.247z"/></defs><g><g transform="translate(-375 -497)"><use fill="#fff" xlink:href="#4cgna"/></g><g transform="translate(-375 -497)"><use fill="#fff" xlink:href="#4cgnb"/></g></g></svg>