<svg xmlns="http://www.w3.org/2000/svg" xmlns:xlink="http://www.w3.org/1999/xlink" width="60" height="60" viewBox="0 0 60 60"><defs><path id="cov6a" d="M1004.9 551.943c-13.902 0-25.144-11.308-25.144-25.144 0-13.835 11.308-25.143 25.144-25.143 13.835 0 25.143 11.308 25.143 25.143 0 13.836-11.308 25.144-25.143 25.144zm0-54.943c-16.363 0-29.8 13.436-29.8 29.8 0 16.496 13.437 29.8 29.8 29.8s29.8-13.304 29.8-29.8c0-16.364-13.437-29.8-29.8-29.8z"/><path id="cov6b" d="M1001.907 530.99l4.19 12.771 9.313-30.864-26.94 17.694z"/></defs><g><g transform="translate(-975 -497)"><use fill="#fff" xlink:href="#cov6a"/></g><g transform="translate(-975 -497)"><use fill="#fff" xlink:href="#cov6b"/></g></g></svg>