<svg xmlns="http://www.w3.org/2000/svg" xmlns:xlink="http://www.w3.org/1999/xlink" width="60" height="32" viewBox="0 0 60 32"><defs><path id="d943a" d="M169.755 936.166l6.915-13.015h-13.603L157 905.153h8.833l5.179 7.119h6.38l-1.521-6.878h9.955l10.306 6.885c4.828 0 9.648-.006 14.472-.006 2.771 0 5.567 2.616 5.567 5.376 0 2.846-2.695 5.502-5.567 5.502h-14.87l-15.93 13.015zm35.38-19.665v2.292h-3.432v-2.292zm-5.622 0v2.292h-3.43v-2.292zm-5.622 0v2.292h-3.432v-2.292zm-5.625 0v2.292h-3.43v-2.292zm-5.621 0v2.292h-3.431v-2.292zm-9.055 0h3.432v2.292h-3.432zm39.254 1.148c0-.934-1.311-2.05-2.241-2.05l-41.279-.002-5.179-7.12h-2.526l3.826 11.348h45.159c1.066 0 2.241-1.148 2.24-2.176zm-32.412 5.502l-5.148 9.69h3.351l11.86-9.69zm4.405-14.432h-4.84l.79 3.567h9.391z"/></defs><g><g transform="translate(-157 -905)"><use fill="#0f171f" xlink:href="#d943a"/></g></g></svg>