<svg xmlns="http://www.w3.org/2000/svg" xmlns:xlink="http://www.w3.org/1999/xlink" width="66" height="31" viewBox="0 0 66 31"><defs><path id="d2fca" d="M60.105 910.393h34.853v11.532H60.105zm14.185 21.401a4.588 4.588 0 0 0-4.587-4.588 4.562 4.562 0 0 0-3.755 1.957h-2.6A4.588 4.588 0 0 0 55 931.794a4.596 4.596 0 0 0 4.589 4.588 4.604 4.604 0 0 0 4.456-3.494h1.2a4.588 4.588 0 0 0 9.044-1.094zm-13.4 0c0 .723-.58 1.3-1.301 1.3a1.303 1.303 0 1 1 1.301-1.3zm8.813-1.3a1.303 1.303 0 1 1-.003 2.604 1.303 1.303 0 0 1 .003-2.605zm13.806-3.287a4.594 4.594 0 0 0-4.589 4.589 4.59 4.59 0 0 0 4.589 4.587 4.601 4.601 0 0 0 4.455-3.494h.963a4.59 4.59 0 0 0 4.455 3.494 4.59 4.59 0 0 0 4.457-3.496h9.2a4.592 4.592 0 0 0 4.457 3.496 4.603 4.603 0 0 0 4.458-3.502h4.373v-12.414h-7.59l-2.432-6.128h-6.208v-3.947h-3.723v18.771h-3.231a4.584 4.584 0 0 0-3.76-1.956c-1.5 0-2.903.732-3.758 1.957h-2.356a4.59 4.59 0 0 0-3.76-1.957zm20.588 1.956v-4.973h12.507v4.98h-1.342a4.585 4.585 0 0 0-7.518-.007zm4.648-8.698h-4.648v-2.404h3.694zm1.45 11.33c0-.724.577-1.303 1.301-1.303a1.303 1.303 0 0 1 0 2.602 1.3 1.3 0 0 1-1.301-1.3zm-18.114 0a1.303 1.303 0 1 1 2.603 0 1.3 1.3 0 0 1-2.603 0zm-8.572-1.302a1.303 1.303 0 0 1 0 2.603 1.301 1.301 0 0 1-1.302-1.3 1.293 1.293 0 0 1 1.302-1.303zm-27.128-4.845h42.3v-18.977h-42.3z"/></defs><g><g transform="translate(-55 -906)"><use fill="#0f171f" xlink:href="#d2fca"/></g></g></svg>