<svg xmlns="http://www.w3.org/2000/svg" width="655.783" height="234.807" viewBox="0 0 655.783 234.807">
  <g id="Group_1619" data-name="Group 1619" transform="translate(2442.93 -253.175) rotate(180)" opacity="0.3">
    <g id="Group_1589" data-name="Group 1589" transform="translate(1832.147 -487.981)">
      <path id="Path_1715" data-name="Path 1715" d="M1842.1-312.945l-9.949-17.235,9.949-17.233H1862l9.949,17.233L1862-312.945Z" transform="translate(-1832.147 412.011)" fill="#fcf7f1"/>
      <path id="Path_1716" data-name="Path 1716" d="M1842.1-223.09l-9.95-17.235,9.949-17.234H1862l9.949,17.233L1862-223.091Z" transform="translate(-1832.147 360.94)" fill="#fcf7f1" opacity="0.2"/>
      <path id="Path_1885" data-name="Path 1885" d="M1842.1-223.09l-9.95-17.235,9.949-17.234H1862l9.949,17.233L1862-223.091Z" transform="translate(-1877.147 360.94)" fill="#fcf7f1"/>
      <path id="Path_1717" data-name="Path 1717" d="M1842.1-133.235l-9.949-17.235,9.95-17.233H1862l9.949,17.235L1862-133.236Z" transform="translate(-1832.147 309.868)" fill="#fcf7f1"/>
      <path id="Path_1718" data-name="Path 1718" d="M1842.1-43.38l-9.949-17.234,9.949-17.233H1862l9.949,17.234L1862-43.379Z" transform="translate(-1832.147 258.796)" fill="#fcf7f1" opacity="0.2"/>
      <path id="Path_1719" data-name="Path 1719" d="M1919.912-357.874l-9.949-17.233,9.949-17.235h19.9l9.949,17.234-9.949,17.233Z" transform="translate(-1876.376 437.548)" fill="#fcf7f1"/>
      <path id="Path_1720" data-name="Path 1720" d="M1919.913-268.019l-9.95-17.233,9.95-17.235h19.9l9.949,17.234-9.949,17.233Z" transform="translate(-1876.376 386.476)" fill="#fcf7f1" opacity="0.5"/>
      <path id="Path_1721" data-name="Path 1721" d="M1919.912-178.163l-9.949-17.234,9.949-17.234h19.9l9.949,17.234-9.949,17.234Z" transform="translate(-1876.376 335.404)" fill="#fcf7f1"/>
      <path id="Path_1722" data-name="Path 1722" d="M1919.913-88.309l-9.95-17.233,9.95-17.234h19.9l9.949,17.234-9.949,17.234Z" transform="translate(-1876.376 284.332)" fill="#fcf7f1" opacity="0.5"/>
      <path id="Path_1723" data-name="Path 1723" d="M1919.913,1.547l-9.95-17.233,9.95-17.234h19.9l9.949,17.234-9.949,17.233Z" transform="translate(-1876.376 233.26)" fill="#fcf7f1"/>
      <path id="Path_1724" data-name="Path 1724" d="M1997.729-312.945l-9.949-17.235,9.949-17.233h19.9l9.949,17.233-9.949,17.235Z" transform="translate(-1920.605 412.011)" fill="#fcf7f1"/>
      <path id="Path_1725" data-name="Path 1725" d="M1997.73-223.09l-9.95-17.235,9.949-17.234h19.9l9.949,17.233-9.949,17.234Z" transform="translate(-1920.605 360.94)" fill="#fcf7f1"/>
      <path id="Path_1726" data-name="Path 1726" d="M1997.729-133.235l-9.949-17.235,9.95-17.233h19.9l9.949,17.235-9.949,17.233Z" transform="translate(-1920.605 309.868)" fill="#fcf7f1"/>
      <path id="Path_1727" data-name="Path 1727" d="M1997.729-43.38l-9.949-17.234,9.949-17.233h19.9l9.949,17.234-9.949,17.235Z" transform="translate(-1920.605 258.796)" fill="#fcf7f1"/>
      <path id="Path_1728" data-name="Path 1728" d="M2075.546-268.019l-9.949-17.233,9.949-17.235h19.9l9.949,17.234-9.949,17.233Z" transform="translate(-1964.834 386.476)" fill="#fcf7f1"/>
      <path id="Path_1729" data-name="Path 1729" d="M2075.545-178.163,2065.6-195.4l9.949-17.234h19.9l9.949,17.234-9.949,17.234Z" transform="translate(-1964.834 335.404)" fill="#fcf7f1"/>
      <path id="Path_1730" data-name="Path 1730" d="M2075.546-88.309l-9.949-17.233,9.949-17.234h19.9l9.949,17.234-9.949,17.234Z" transform="translate(-1964.834 284.332)" fill="#fcf7f1"/>
      <path id="Path_1731" data-name="Path 1731" d="M2075.546,1.547,2065.6-15.686l9.949-17.234h19.9l9.949,17.234-9.949,17.233Z" transform="translate(-1964.834 233.26)" fill="#fcf7f1"/>
      <path id="Path_1732" data-name="Path 1732" d="M2153.361-312.945l-9.949-17.235,9.949-17.233h19.9l9.949,17.233-9.949,17.235Z" transform="translate(-2009.063 412.011)" fill="#fcf7f1"/>
      <path id="Path_1871" data-name="Path 1871" d="M2153.361-312.945l-9.949-17.235,9.949-17.233h19.9l9.949,17.233-9.949,17.235Z" transform="translate(-2042.659 364.671)" fill="#fcf7f1"/>
      <path id="Path_1733" data-name="Path 1733" d="M2153.362-223.09l-9.95-17.235,9.949-17.234h19.9l9.949,17.233-9.949,17.234Z" transform="translate(-2009.063 360.94)" fill="#fcf7f1"/>
      <path id="Path_1734" data-name="Path 1734" d="M2153.361-133.235l-9.949-17.235,9.95-17.233h19.9l9.949,17.235-9.949,17.233Z" transform="translate(-2009.063 309.868)" fill="#fcf7f1"/>
      <path id="Path_1735" data-name="Path 1735" d="M2153.361-43.38l-9.949-17.234,9.949-17.233h19.9l9.949,17.234-9.949,17.235Z" transform="translate(-2009.063 258.796)" fill="#fcf7f1"/>
      <path id="Path_1736" data-name="Path 1736" d="M2231.178-178.163l-9.949-17.234,9.949-17.234h19.9l9.949,17.234-9.949,17.234Z" transform="translate(-2053.293 335.404)" fill="#fcf7f1"/>
      <path id="Path_1737" data-name="Path 1737" d="M2231.179-88.309l-9.95-17.233,9.95-17.234h19.9l9.949,17.234-9.949,17.234Z" transform="translate(-2053.293 284.332)" fill="#fcf7f1"/>
      <path id="Path_1738" data-name="Path 1738" d="M2231.178,1.547l-9.949-17.233,9.95-17.234h19.9l9.948,17.234-9.948,17.233Z" transform="translate(-2053.293 233.26)" fill="#fcf7f1"/>
      <path id="Path_1739" data-name="Path 1739" d="M2308.994-312.945l-9.949-17.235,9.949-17.233h19.9l9.949,17.233-9.949,17.235Z" transform="translate(-2097.522 412.011)" fill="#fcf7f1"/>
      <path id="Path_1740" data-name="Path 1740" d="M2309-223.09l-9.95-17.235,9.949-17.234h19.9l9.949,17.233-9.949,17.234Z" transform="translate(-2097.522 360.94)" fill="#fcf7f1"/>
      <path id="Path_1741" data-name="Path 1741" d="M2308.994-133.235l-9.949-17.235L2309-167.7h19.9l9.949,17.235-9.949,17.233Z" transform="translate(-2097.522 309.868)" fill="#fcf7f1"/>
      <path id="Path_1742" data-name="Path 1742" d="M2308.994-43.38l-9.949-17.234,9.949-17.233h19.9l9.949,17.234-9.949,17.235Z" transform="translate(-2097.522 258.796)" fill="#fcf7f1"/>
      <path id="Path_1743" data-name="Path 1743" d="M2386.812-268.019l-9.95-17.233,9.95-17.235h19.9l9.948,17.234-9.948,17.233Z" transform="translate(-2141.751 386.476)" fill="#fcf7f1"/>
      <path id="Path_1874" data-name="Path 1874" d="M2386.812-268.019l-9.95-17.233,9.95-17.235h19.9l9.948,17.234-9.948,17.233Z" transform="translate(-2309.73 302.486)" fill="#fcf7f1"/>
      <path id="Path_1744" data-name="Path 1744" d="M2386.811-178.163l-9.949-17.234,9.949-17.234h19.9l9.948,17.234-9.948,17.234Z" transform="translate(-2141.751 335.404)" fill="#fcf7f1"/>
      <path id="Path_1745" data-name="Path 1745" d="M2386.812-88.309l-9.95-17.233,9.95-17.234h19.9l9.948,17.234-9.948,17.234Z" transform="translate(-2141.751 284.332)" fill="#fcf7f1"/>
      <path id="Path_1746" data-name="Path 1746" d="M2386.812,1.547l-9.95-17.233,9.95-17.234h19.9l9.948,17.234-9.948,17.233Z" transform="translate(-2141.751 233.26)" fill="#fcf7f1"/>
      <path id="Path_1747" data-name="Path 1747" d="M2464.627-312.945l-9.949-17.235,9.949-17.233h19.9l9.949,17.233-9.949,17.235Z" transform="translate(-2185.98 412.011)" fill="#fcf7f1"/>
      <path id="Path_1748" data-name="Path 1748" d="M2464.628-223.09l-9.95-17.235,9.949-17.234h19.9l9.949,17.233-9.949,17.234Z" transform="translate(-2185.98 360.94)" fill="#fcf7f1"/>
      <path id="Path_1749" data-name="Path 1749" d="M2464.627-133.235l-9.949-17.235,9.95-17.233h19.9l9.949,17.235-9.949,17.233Z" transform="translate(-2185.98 309.868)" fill="#fcf7f1"/>
      <path id="Path_1750" data-name="Path 1750" d="M2464.627-43.38l-9.949-17.234,9.949-17.233h19.9l9.949,17.234-9.949,17.235Z" transform="translate(-2185.98 258.796)" fill="#fcf7f1"/>
      <path id="Path_1751" data-name="Path 1751" d="M2542.444-268.019l-9.95-17.233,9.95-17.235h19.9l9.949,17.234-9.949,17.233Z" transform="translate(-2230.209 386.476)" fill="#fcf7f1"/>
      <path id="Path_1752" data-name="Path 1752" d="M2542.443-178.163l-9.949-17.234,9.949-17.234h19.9l9.949,17.234-9.949,17.234Z" transform="translate(-2230.209 335.404)" fill="#fcf7f1"/>
      <path id="Path_1753" data-name="Path 1753" d="M2542.444-88.309l-9.95-17.233,9.95-17.234h19.9l9.949,17.234-9.949,17.234Z" transform="translate(-2230.209 284.332)" fill="#fcf7f1"/>
      <path id="Path_1754" data-name="Path 1754" d="M2542.444,1.547l-9.95-17.233,9.95-17.234h19.9l9.949,17.234-9.949,17.233Z" transform="translate(-2230.209 233.26)" fill="#fcf7f1"/>
      <path id="Path_1755" data-name="Path 1755" d="M2620.26-312.945l-9.949-17.235,9.949-17.233h19.9l9.949,17.233-9.949,17.235Z" transform="translate(-2274.438 412.011)" fill="#fcf7f1"/>
      <path id="Path_1756" data-name="Path 1756" d="M2620.261-223.09l-9.95-17.235,9.949-17.234h19.9l9.949,17.233-9.949,17.234Z" transform="translate(-2274.438 360.94)" fill="#fcf7f1"/>
      <path id="Path_1757" data-name="Path 1757" d="M2620.26-133.235l-9.949-17.235,9.95-17.233h19.9l9.949,17.235-9.949,17.233Z" transform="translate(-2274.438 309.868)" fill="#fcf7f1"/>
      <path id="Path_1758" data-name="Path 1758" d="M2620.26-43.38l-9.949-17.234,9.949-17.233h19.9l9.949,17.234-9.949,17.235Z" transform="translate(-2274.438 258.796)" fill="#fcf7f1"/>
      <path id="Path_1759" data-name="Path 1759" d="M2698.076-357.874l-9.949-17.233,9.949-17.235h19.9l9.949,17.234-9.949,17.233Z" transform="translate(-2318.668 437.548)" fill="#fcf7f1"/>
      <path id="Path_1760" data-name="Path 1760" d="M2698.077-268.019l-9.949-17.233,9.949-17.235h19.9l9.949,17.234-9.949,17.233Z" transform="translate(-2318.668 386.476)" fill="#fcf7f1"/>
      <path id="Path_1761" data-name="Path 1761" d="M2698.076-178.163l-9.949-17.234,9.949-17.234h19.9l9.949,17.234-9.949,17.234Z" transform="translate(-2318.668 335.404)" fill="#fcf7f1"/>
      <path id="Path_1762" data-name="Path 1762" d="M2698.077-88.309l-9.949-17.233,9.949-17.234h19.9l9.949,17.234-9.949,17.234Z" transform="translate(-2318.668 284.332)" fill="#fcf7f1"/>
      <path id="Path_1763" data-name="Path 1763" d="M2698.077,1.547l-9.949-17.233,9.949-17.234h19.9l9.948,17.234-9.948,17.233Z" transform="translate(-2318.668 233.26)" fill="#fcf7f1"/>
      <path id="Path_1764" data-name="Path 1764" d="M2775.893-312.945l-9.95-17.235,9.95-17.233h19.9l9.949,17.233-9.949,17.235Z" transform="translate(-2362.896 412.011)" fill="#fcf7f1"/>
      <path id="Path_1765" data-name="Path 1765" d="M2775.894-223.09l-9.95-17.235,9.95-17.234h19.9l9.949,17.233-9.949,17.234Z" transform="translate(-2362.896 360.94)" fill="#fcf7f1"/>
      <path id="Path_1766" data-name="Path 1766" d="M2775.893-133.235l-9.95-17.235,9.95-17.233h19.9l9.949,17.235-9.949,17.233Z" transform="translate(-2362.896 309.868)" fill="#fcf7f1"/>
      <path id="Path_1767" data-name="Path 1767" d="M2775.893-43.38l-9.95-17.234,9.95-17.233h19.9l9.949,17.234-9.949,17.235Z" transform="translate(-2362.896 258.796)" fill="#fcf7f1"/>
      <path id="Path_1768" data-name="Path 1768" d="M2853.709-357.874l-9.949-17.233,9.949-17.235h19.9l9.949,17.234-9.949,17.233Z" transform="translate(-2407.126 437.548)" fill="#fcf7f1"/>
      <path id="Path_1769" data-name="Path 1769" d="M2853.71-268.019l-9.95-17.233,9.95-17.235h19.9l9.949,17.234-9.949,17.233Z" transform="translate(-2407.126 386.476)" fill="#fcf7f1"/>
      <path id="Path_1770" data-name="Path 1770" d="M2853.709-178.163,2843.76-195.4l9.949-17.234h19.9l9.949,17.234-9.949,17.234Z" transform="translate(-2407.126 335.404)" fill="#fcf7f1"/>
      <path id="Path_1771" data-name="Path 1771" d="M2853.71-88.309l-9.95-17.233,9.95-17.234h19.9l9.949,17.234-9.949,17.234Z" transform="translate(-2407.126 284.332)" fill="#fcf7f1"/>
      <path id="Path_1772" data-name="Path 1772" d="M2853.71,1.547l-9.95-17.233,9.95-17.234h19.9l9.949,17.234L2873.61,1.547Z" transform="translate(-2407.126 233.26)" fill="#fcf7f1"/>
      <path id="Path_1773" data-name="Path 1773" d="M2931.526-312.945l-9.949-17.235,9.949-17.233h19.9l9.95,17.233-9.95,17.235Z" transform="translate(-2451.355 412.011)" fill="#fcf7f1"/>
      <path id="Path_1774" data-name="Path 1774" d="M2931.527-223.09l-9.95-17.235,9.949-17.234h19.9l9.95,17.233-9.95,17.234Z" transform="translate(-2451.355 360.94)" fill="#fcf7f1"/>
      <path id="Path_1775" data-name="Path 1775" d="M2931.526-133.235l-9.949-17.235,9.95-17.233h19.9l9.95,17.235-9.95,17.233Z" transform="translate(-2451.355 309.868)" fill="#fcf7f1"/>
      <path id="Path_1776" data-name="Path 1776" d="M2931.526-43.38l-9.949-17.234,9.949-17.233h19.9l9.95,17.234-9.95,17.235Z" transform="translate(-2451.355 258.796)" fill="#fcf7f1"/>
      <path id="Path_1777" data-name="Path 1777" d="M3009.342-357.874l-9.949-17.233,9.949-17.235h19.9l9.949,17.234-9.949,17.233Z" transform="translate(-2495.584 437.548)" fill="#fcf7f1"/>
      <path id="Path_1778" data-name="Path 1778" d="M3009.343-268.019l-9.95-17.233,9.95-17.235h19.9l9.949,17.234-9.949,17.233Z" transform="translate(-2495.584 386.476)" fill="#fcf7f1"/>
      <path id="Path_1779" data-name="Path 1779" d="M3009.342-178.163l-9.949-17.234,9.949-17.234h19.9l9.949,17.234-9.949,17.234Z" transform="translate(-2495.584 335.404)" fill="#fcf7f1"/>
      <path id="Path_1780" data-name="Path 1780" d="M3009.343-88.309l-9.95-17.233,9.95-17.234h19.9l9.949,17.234-9.949,17.234Z" transform="translate(-2495.584 284.332)" fill="#fcf7f1"/>
      <path id="Path_1781" data-name="Path 1781" d="M3009.342,1.547l-9.95-17.233,9.95-17.234h19.9l9.949,17.234-9.949,17.233Z" transform="translate(-2495.584 233.26)" fill="#fcf7f1"/>
      <path id="Path_1782" data-name="Path 1782" d="M3087.159-223.09l-9.95-17.235,9.949-17.234h19.9l9.949,17.233-9.949,17.234Z" transform="translate(-2539.813 360.94)" fill="#fcf7f1"/>
      <path id="Path_1783" data-name="Path 1783" d="M3087.158-133.235l-9.949-17.235,9.95-17.233h19.9l9.949,17.235-9.949,17.233Z" transform="translate(-2539.813 309.868)" fill="#fcf7f1"/>
      <path id="Path_1784" data-name="Path 1784" d="M3087.158-43.38l-9.949-17.234,9.949-17.233h19.9l9.949,17.234-9.949,17.235Z" transform="translate(-2539.813 258.796)" fill="#fcf7f1"/>
      <path id="Path_1786" data-name="Path 1786" d="M3164.976-268.019l-9.951-17.233,9.951-17.235h19.9l9.95,17.234-9.95,17.233Z" transform="translate(-2584.042 386.476)" fill="#fcf7f1"/>
      <path id="Path_1787" data-name="Path 1787" d="M3164.975-178.163l-9.949-17.234,9.949-17.234h19.9l9.95,17.234-9.95,17.234Z" transform="translate(-2584.042 335.404)" fill="#fcf7f1"/>
      <path id="Path_1788" data-name="Path 1788" d="M3164.976-88.309l-9.951-17.233,9.951-17.234h19.9l9.95,17.234-9.95,17.234Z" transform="translate(-2584.042 284.332)" fill="#fcf7f1"/>
      <path id="Path_1789" data-name="Path 1789" d="M3164.975,1.547l-9.95-17.233,9.951-17.234h19.9l9.949,17.234-9.949,17.233Z" transform="translate(-2584.042 233.26)" fill="#fcf7f1"/>
    </g>
  </g>
</svg>
