<svg xmlns="http://www.w3.org/2000/svg" xmlns:xlink="http://www.w3.org/1999/xlink" width="21" height="21" viewBox="0 0 21 21"><defs>
	<path id="dctpa" d="M1236.247 656.264a3.464 3.464 0 0 1-1.184 1.251 6.097 6.097 0 0 1-1.638.716 7.008 7.008 0 0 1-1.873.247c-1.506 0-2.803-.292-3.891-.876-1.088-.584-1.632-1.286-1.632-2.107 0-.4.114-.735.341-1.003.227-.267.564-.4 1.01-.4.258 0 .499.07.722.213.223.143.428.315.615.515.187.201.39.401.609.602.218.2.508.372.869.515.361.143.769.214 1.224.214.58 0 1.047-.113 1.404-.34.357-.228.535-.516.535-.863 0-.357-.142-.625-.428-.803-.195-.125-.695-.286-1.498-.482l-1.952-.482a8.273 8.273 0 0 1-1.378-.434 4.537 4.537 0 0 1-1.07-.649 2.533 2.533 0 0 1-.749-1.01c-.17-.405-.254-.88-.254-1.424 0-.65.15-1.224.448-1.719a3.238 3.238 0 0 1 1.19-1.163 6.152 6.152 0 0 1 1.599-.629 7.47 7.47 0 0 1 1.765-.207c.856 0 1.667.102 2.434.307.767.205 1.4.506 1.9.903.498.397.748.84.748 1.331 0 .401-.127.745-.381 1.03-.254.285-.59.428-1.01.428-.232 0-.445-.054-.642-.16a2.571 2.571 0 0 1-.535-.389c-.16-.151-.33-.3-.508-.448a2.374 2.374 0 0 0-.722-.38 3.085 3.085 0 0 0-1.03-.161c-1.284 0-1.926.343-1.926 1.03a.79.79 0 0 0 .1.4c.067.117.14.21.221.282.08.071.214.142.401.214.188.071.344.123.468.154.125.03.321.078.589.14l1.39.32c.438.099.828.202 1.171.308.344.108.711.26 1.104.455.392.197.717.415.976.656.259.24.475.546.649.916.174.37.26.778.26 1.224 0 .65-.147 1.237-.441 1.758zm4.227-1.986a9.873 9.873 0 0 0 .213-2.006 9.25 9.25 0 0 0-.742-3.658 9.414 9.414 0 0 0-2.006-3.01 9.415 9.415 0 0 0-3.01-2.006 9.257 9.257 0 0 0-3.657-.742c-.651 0-1.32.071-2.006.214a5.003 5.003 0 0 0-3.13-1.07c-1.418 0-2.628.502-3.631 1.504-1.004 1.004-1.505 2.214-1.505 3.632 0 1.16.357 2.202 1.07 3.13a9.855 9.855 0 0 0-.214 2.006c0 1.275.247 2.494.742 3.658a9.415 9.415 0 0 0 2.006 3.01 9.418 9.418 0 0 0 3.01 2.006 9.252 9.252 0 0 0 3.658.742c.65 0 1.32-.071 2.006-.214a5.001 5.001 0 0 0 3.13 1.07c1.417 0 2.628-.502 3.63-1.505 1.004-1.003 1.505-2.213 1.505-3.631a5.007 5.007 0 0 0-1.07-3.13z"/>
</defs><g><g transform="translate(-1221 -642)"><use fill="#fff" xlink:href="#dctpa"/></g></g></svg>