<svg xmlns="http://www.w3.org/2000/svg" xmlns:xlink="http://www.w3.org/1999/xlink" width="32" height="31" viewBox="0 0 32 31"><defs><path id="7ir1a" d="M120.294 493.526c0 .116-.105.254-.233.308l-11.925 5.01c-.112.046-.203-.003-.205-.11l-.009-.583c-.002-.107.087-.233.199-.28l11.946-5.09c.129-.054.232-.004.231.113zm-8.594 1.453c.002.221-.186.482-.418.583l-1.044.45c-.23.099-.416.002-.419-.217l-.061-5.003-.676.313c-.317.147-.52-.094-.366-.436l1.583-3.492c.16-.352.568-.55.734-.355l1.687 1.975c.168.198-.037.638-.369.791l-.696.323zm7.351-8.499l-.752.349-.015 5.292c0 .231-.205.506-.456.615l-1.125.486c-.247.106-.447.007-.447-.22l-.004-5.223-.728.338c-.343.159-.557-.09-.387-.45l1.741-3.673c.176-.37.616-.585.793-.384l1.787 2.037c.178.204-.048.667-.407.833zm-3.874-10.722l-15.537 7.305v4.69l-2.71-1.205v-4.69l15.536-7.305-5.218-2.32c-.7-.31-1.842-.31-2.541 0l-12.85 5.714c-1.024.455-1.86 1.744-1.857 2.864l.032 13.395c.002 1.132.856 2.423 1.897 2.868l12.817 5.479c.676.289 1.782.289 2.458 0l12.821-5.48c1.041-.444 1.895-1.735 1.898-2.867l.032-13.395c.002-1.12-.833-2.41-1.857-2.864z"/></defs><g><g transform="translate(-90 -472)"><use fill="#f77e0b" xlink:href="#7ir1a"/></g></g></svg>