<svg xmlns="http://www.w3.org/2000/svg" xmlns:xlink="http://www.w3.org/1999/xlink" width="68" height="38" viewBox="0 0 68 38"><defs><path id="n6d5a" d="M267.24 913.451h4.088v3.935h48.168l-10.689 12.246a65.133 65.133 0 0 0-3.772-1.308l6.307-7.226h-54.254l2.386 7.407a72.47 72.47 0 0 0-3.49 1.24L252 917.386h7.437v-3.935h4.089v-14.512h3.715v14.512zm41.335 18.044c.999.378 2.083.791 3.379 1.252l-1.234 3.496c-1.212-.43-2.377-.873-3.45-1.28-5.528-2.099-8.37-3.179-15.921-.5-7.123 2.528-10.33 2.582-17.605 0-7.555-2.679-10.393-1.602-15.922.499-1.07.406-2.237.852-3.449 1.28l-1.234-3.497c1.294-.459 2.379-.872 3.378-1.251 6.365-2.419 9.631-3.658 18.46-.53 6.355 2.258 8.782 2.255 15.138 0 8.824-3.13 12.096-1.885 18.46.531zm-14.828-6.314v-2.712h5.24v2.712zm12.22 0h-5.24v-2.712h5.24zm2.44-13.012v3.794h-6.127v-3.794zm-9.95-5.228h6.128v3.796h-6.128zm2.303 9.022h-6.127v-3.794h6.127zm-9.95-9.024h6.127v3.796h-6.127zm2.304 5.23v3.794h-6.127v-3.794zm-7.647 3.794h-6.127v-3.794h6.127zm3.823-9.024v3.796h-6.126v-3.796z"/></defs><g><g transform="translate(-252 -899)"><use fill="#0f171f" xlink:href="#n6d5a"/></g></g></svg>