<svg xmlns="http://www.w3.org/2000/svg" xmlns:xlink="http://www.w3.org/1999/xlink" width="19" height="19" viewBox="0 0 19 19"><defs>
	<path id="moqra" d="M1235.514 604.5h2.01c0-2.813-2.21-5.024-5.024-5.024v2.01c1.708 0 3.014 1.306 3.014 3.014zm4.02 0h2.009a9.005 9.005 0 0 0-9.043-9.043v2.01a6.99 6.99 0 0 1 7.033 7.033zm1.004 3.517a11.38 11.38 0 0 1-3.617-.603c-.301-.1-.703 0-1.005.2l-2.21 2.211c-2.814-1.406-5.125-3.818-6.632-6.631l2.21-2.21c.302-.302.403-.704.202-1.005-.302-1.106-.503-2.311-.503-3.517 0-.603-.402-1.005-1.004-1.005h-3.517c-.603 0-1.005.402-1.005 1.005 0 9.445 7.636 17.081 17.081 17.081.603 0 1.005-.402 1.005-1.005v-3.517c0-.602-.402-1.004-1.005-1.004z"/>
</defs><g><g transform="translate(-1223 -595)"><g><use fill="#fff" xlink:href="#moqra"/></g></g></g></svg>