<svg xmlns="http://www.w3.org/2000/svg" xmlns:xlink="http://www.w3.org/1999/xlink" width="22" height="26" viewBox="0 0 22 26"><defs>
	<path id="5woua" d="M1239.194 555.558c-.245.662-.646 1.317-1.19 1.947a.03.03 0 0 0-.003.005l-6.886 8.087-6.89-8.092c-.543-.63-.943-1.284-1.19-1.953-.992-2.622-.615-5.588 1.006-7.935 1.627-2.355 4.205-3.705 7.074-3.705 2.87 0 5.447 1.35 7.074 3.705 1.622 2.347 1.998 5.313 1.005 7.94zm.478-8.966c-1.968-2.849-5.087-4.483-8.557-4.483-3.47 0-6.589 1.634-8.557 4.483-1.958 2.834-2.41 6.421-1.212 9.591.321.866.83 1.707 1.511 2.495l7.572 8.894a.901.901 0 0 0 1.373 0l7.57-8.892c.683-.792 1.192-1.632 1.51-2.491 1.2-3.176.749-6.763-1.21-9.597z"/>
	<path id="5woub" d="M1231.115 555.75a3.249 3.249 0 0 1-3.245-3.245 3.249 3.249 0 0 1 3.245-3.245 3.249 3.249 0 0 1 3.245 3.245 3.249 3.249 0 0 1-3.245 3.245zm0-8.292a5.053 5.053 0 0 0-5.047 5.047 5.053 5.053 0 0 0 5.047 5.048 5.053 5.053 0 0 0 5.048-5.048 5.054 5.054 0 0 0-5.048-5.047z"/></defs><g><g transform="translate(-1220 -542)">
	<g><g><g><use fill="#fff" xlink:href="#5woua"/></g></g></g><g><g><g><use fill="#fff" xlink:href="#5woub"/></g></g></g></g></g></svg>