<svg xmlns="http://www.w3.org/2000/svg" xmlns:xlink="http://www.w3.org/1999/xlink" width="138" height="25" viewBox="0 0 138 25">
	<defs>
		<path id="s4gma" d="M178.886 2533.988l-6.025 9.469z"/>
		<path id="s4gmb" d="M152.932 2527.553h.13l1.759 3.45h3.093l-2.927-5.571h-4.013l-2.95 5.57h3.082z"/>
		<path id="s4gmc" d="M138.07 2531.003v-5.571h2.709v5.57z"/>
		<path id="s4gmd" d="M147.602 2531.8l-1.44 2.72h-5.383v-2.72h-2.71v4.97h10.065l1.47-2.854h6.705l1.451 2.854h3.183l-2.611-4.97z"/>
		<path id="s4gme" d="M178.886 2528.636l-6.025-9.474z"/>
		<path id="s4gmf" d="M118.184 2536.77v-11.338h2.709v11.338z"/>
		<path id="s4gmg" d="M133.421 2532.61c0 .772-.134 1.283-.406 1.534-.272.251-.843.376-1.715.376h-3.59c-.826 0-1.386-.131-1.68-.393-.292-.261-.439-.762-.439-1.5v-3.018c0-.805.15-1.346.448-1.623.3-.278.872-.417 1.721-.417h3.492c.837 0 1.408.136 1.713.408.305.272.456.81.456 1.615zm1.713-6.476c-.598-.544-1.631-.816-3.1-.816h-4.975c-1.566 0-2.653.288-3.264.864-.608.577-.913 1.632-.913 3.165v3.557c0 1.391.317 2.384.954 2.978.636.593 1.711.888 3.223.888h4.976c1.567 0 2.64-.284 3.222-.855.58-.571.874-1.576.874-3.01v-3.558c0-1.543-.332-2.615-.997-3.213z"/><path id="s4gmh" d="M164.423 2531.8l7.524 11.816 6.532-10.267-1.296-2.036 1.297-2.038-6.532-10.272-.001-.003-7.637 12.003h12.076v.796z"/>
		<path id="s4gmi" d="M185.115 2519.162l7.512 11.808H180.37l-7.509-11.808z"/>
		<path id="s4gmj" d="M180.37 2531.656l-7.509 11.8h12.255l7.51-11.8z"/>
		<path id="s4gmk" d="M65.228 2534.208c-.283.208-.843.312-1.68.312h-3.475c-.827 0-1.387-.125-1.68-.376-.338-.283-.507-.843-.507-1.682v-1.017h-2.708v1.329c0 1.521.296 2.57.888 3.14.592.572 1.67.856 3.234.856h5.036c1.651 0 2.745-.268 3.283-.808.538-.537.807-1.573.807-3.107h-2.709c0 .664-.163 1.115-.49 1.353z"/>
		<path id="s4gml" d="M110.78 2525.432l-3.753 9.088h-.163l-3.753-9.088H98.07v11.338h2.708v-9.087h.36l3.882 9.087h3.85l3.883-9.087h.359v9.087h2.71v-11.338z"/>
		<path id="s4gmm" d="M57.886 2530.648v-.99c0-.882.139-1.45.416-1.706.277-.255.868-.383 1.77-.383h3.475c.783 0 1.34.134 1.673.4.331.267.497.7.497 1.297h2.709c0-1.512-.392-2.572-1.175-3.181-.652-.512-1.713-.767-3.182-.767h-4.502c-1.676 0-2.826.297-3.451.89-.626.592-.938 1.71-.938 3.352v1.088z"/>
		<path id="s4gmn" d="M79.78 2529.788h-6.999v-4.356h-2.708v11.338h2.708v-4.731h7v4.73h2.708v-11.337h-2.708z"/>
		<path id="s4gmo" d="M84.415 2536.77h11.567v-2.136h-8.86v-2.595h8.582v-1.973h-8.581v-2.497h8.86v-2.137H84.414z"/>
	</defs>
	<g>
		<g transform="translate(-55 -2519)">
			<g>
				<use fill="#fff" xlink:href="#s4gma"/>
			</g>
			<g>
				<use fill="#fff" xlink:href="#s4gmb"/>
			</g>
			<g>
				<use fill="#fff" xlink:href="#s4gmc"/>
			</g>
			<g>
				<use fill="#fff" xlink:href="#s4gmd"/>
			</g>
			<g>
				<use fill="#fff" xlink:href="#s4gme"/>
			</g>
			<g>
				<use fill="#fff" xlink:href="#s4gmf"/>
			</g>
			<g>
				<use fill="#fff" xlink:href="#s4gmg"/>
			</g>
			<g>
				<use fill="#fff" xlink:href="#s4gmh"/>
			</g>
			<g>
				<use fill="#fff" xlink:href="#s4gmi"/>
			</g>
			<g>
				<use fill="#fff" xlink:href="#s4gmj"/>
			</g>
			<g>
				<g>
					<use fill="#fff" xlink:href="#s4gmk"/>
				</g>
				<g>
					<use fill="#fff" xlink:href="#s4gml"/>
				</g>
				<g>
					<use fill="#fff" xlink:href="#s4gmm"/>
				</g>
				<g>
					<use fill="#fff" xlink:href="#s4gmn"/>
				</g>
				<g>
					<use fill="#fff" xlink:href="#s4gmo"/>
				</g>
			</g>
		</g>
	</g>
</svg>