<svg xmlns="http://www.w3.org/2000/svg" xmlns:xlink="http://www.w3.org/1999/xlink" width="34" height="34" viewBox="0 0 34 34"><defs><path id="w3lla" d="M411.38 470.062l-.124-.665-.665-.124a10.84 10.84 0 0 0-1.81-.145c-1.441 0-3.44.28-4.775 1.616-2.248 2.248-1.503 6.409-1.47 6.585l.123.665.665.124c.032.006.792.145 1.811.145 1.44 0 3.438-.28 4.774-1.616 2.249-2.248 1.504-6.41 1.471-6.585z"/><path id="w3llb" d="M410.45 500.797c-1.558-4.858-2.599-11.006-3.17-16.165a102.661 102.661 0 0 1-.375-4.104h-10.293l-.062.92c-.355 5.297-1.503 13.07-3.665 19.349h-2.759v1.972h33.663v-1.972h-2.757c-1.479-4.332-2.56-9.968-2.914-15.244l-.062-.92h-8.79c.618 5.438 1.735 11.64 3.26 16.164z"/></defs><g><g transform="translate(-390 -469)"><g><use fill="#f77e0b" xlink:href="#w3lla"/></g><g><use fill="#f77e0b" xlink:href="#w3llb"/></g></g></g></svg>