<svg xmlns="http://www.w3.org/2000/svg" xmlns:xlink="http://www.w3.org/1999/xlink" width="26" height="32" viewBox="0 0 26 32"><defs><path id="x97ka" d="M713.877 473.54h-.915v22.47a2.711 2.711 0 0 1-2.707 2.708h-16.636v.832c0 .954.774 1.728 1.728 1.728h18.527c.953 0 1.728-.774 1.728-1.728V475.27c0-.954-.771-1.728-1.725-1.728z"/><path id="x97kb" d="M695.298 481.638h12.082a.817.817 0 0 1 0 1.633h-12.082a.817.817 0 0 1 0-1.633zm12.082 6.059h-12.082a.817.817 0 0 1 0-1.633h12.082a.817.817 0 0 1 0 1.633zm-12.082 4.168a.817.817 0 0 1 0-1.633h6.043a.817.817 0 1 1-.003 1.633zm14.953 5.873c.954 0 1.728-.774 1.728-1.728v-24.282c0-.954-.774-1.728-1.728-1.728h-12.343v.572c.006.058.01.12.01.183v4.732a2.435 2.435 0 0 1-2.434 2.434h-4.733c-.049 0-.1-.003-.15-.007h-.6v18.096c0 .954.773 1.728 1.727 1.728z"/><path id="x97kc" d="M690.751 476.94H695.497a1.45 1.45 0 0 0 1.438-1.436v-4.749a.727.727 0 0 0-1.242-.513l-5.458 5.458a.727.727 0 0 0 .516 1.24z"/></defs><g><g transform="translate(-690 -470)"><g><use fill="#f77e0b" xlink:href="#x97ka"/></g><g><use fill="#f77e0b" xlink:href="#x97kb"/></g><g><use fill="#f77e0b" xlink:href="#x97kc"/></g></g></g></svg>